<?xml version="1.0" standalone="no"?>
<!DOCTYPE svg PUBLIC "-//W3C//DTD SVG 20010904//EN"
 "http://www.w3.org/TR/2001/REC-SVG-20010904/DTD/svg10.dtd">
<svg version="1.0" xmlns="http://www.w3.org/2000/svg"
 width="666.000000pt" height="375.000000pt" viewBox="0 0 666.000000 375.000000"
 preserveAspectRatio="xMidYMid meet">

<g transform="translate(0.000000,375.000000) scale(0.100000,-0.100000)"
fill="#000000" stroke="none">
<path d="M1327 2883 c-3 -5 -8 -30 -12 -58 -24 -167 -236 -564 -426 -799 -37
-45 -65 -72 -67 -64 -10 50 82 692 103 716 2 2 12 -2 23 -9 17 -10 24 -10 37
1 15 12 16 26 11 88 -8 85 -12 98 -32 106 -75 29 -146 -207 -198 -654 -9 -74
-20 -185 -24 -246 l-9 -112 -52 -59 c-58 -67 -58 -68 -4 -147 31 -45 33 -54
28 -105 -25 -267 -35 -835 -16 -908 13 -47 33 -67 58 -59 17 5 18 29 18 388 0
211 4 415 9 453 l9 70 19 -45 c11 -25 53 -125 93 -223 88 -213 128 -277 199
-312 27 -14 55 -25 61 -25 21 0 91 43 128 78 31 30 121 169 178 274 13 25 88
159 139 248 48 86 103 169 110 170 13 0 93 -104 102 -133 5 -17 11 -114 14
-215 3 -139 8 -191 20 -213 25 -49 51 -69 89 -69 70 0 157 117 290 394 124
255 137 306 82 306 -21 0 -31 -14 -72 -107 -55 -124 -172 -352 -208 -409 -14
-22 -39 -54 -57 -73 -29 -32 -33 -33 -48 -17 -15 14 -17 43 -17 209 -1 227 -7
248 -106 359 l-60 68 26 66 c16 40 26 85 27 117 0 43 -4 55 -27 74 -32 28 -60
29 -102 3 -40 -24 -59 -53 -71 -105 -11 -53 0 -99 36 -150 l30 -42 -47 -69
c-26 -38 -105 -172 -175 -299 -152 -271 -196 -340 -236 -360 -45 -23 -67 -18
-109 25 -41 42 -78 122 -145 306 -39 109 -96 232 -130 279 -18 26 -21 41 -17
118 3 81 5 89 34 120 38 41 162 196 208 262 188 269 376 693 341 770 -11 24
-45 35 -55 18z m393 -951 c0 -10 -7 -43 -16 -72 -15 -50 -17 -53 -30 -35 -19
25 -18 61 3 96 19 33 43 39 43 11z"/>
<path d="M3584 2752 c-18 -12 -39 -60 -79 -189 -21 -68 -42 -123 -47 -123 -5
0 -20 7 -34 16 -82 54 -254 -85 -373 -301 -142 -259 -235 -582 -236 -820 0
-144 11 -179 61 -191 37 -9 69 9 108 63 74 100 240 441 382 783 51 124 71 156
60 101 -34 -181 -32 -602 3 -801 21 -116 32 -155 70 -242 37 -87 131 -157 190
-143 174 40 334 283 452 688 7 26 16 47 19 47 14 0 84 -107 91 -139 5 -20 9
-107 9 -195 0 -92 5 -175 12 -198 14 -48 59 -88 99 -88 60 0 149 110 251 313
50 100 51 102 61 72 26 -79 79 -88 140 -22 40 43 95 122 132 187 42 76 90 149
98 150 4 0 4 -17 0 -37 -14 -67 -6 -297 12 -339 26 -62 52 -84 101 -84 38 0
50 6 105 58 34 31 91 95 126 141 l63 84 0 -51 c0 -85 27 -124 74 -106 22 8 61
76 85 147 45 130 218 432 229 399 2 -7 -1 -34 -7 -60 -30 -124 -39 -373 -17
-427 14 -33 59 -65 90 -65 36 0 176 164 230 268 14 28 14 32 -2 51 -15 20 -19
20 -38 7 -12 -9 -52 -58 -88 -110 -83 -116 -103 -136 -117 -116 -13 20 -5 202
17 351 19 133 14 182 -21 205 -21 14 -27 14 -52 1 -60 -32 -151 -161 -237
-336 -46 -93 -56 -108 -56 -82 0 50 29 180 56 251 31 84 31 100 -1 100 -34 0
-56 -39 -90 -158 -24 -84 -37 -110 -107 -209 -99 -139 -217 -267 -243 -262
-12 3 -22 18 -28 39 -13 49 -3 300 18 448 18 130 15 152 -26 152 -19 0 -40
-31 -176 -260 -89 -152 -124 -200 -103 -146 14 39 4 66 -25 66 -21 0 -27 -8
-39 -52 -34 -127 -34 -127 -29 -53 9 114 48 256 79 283 35 31 31 76 -8 80 -34
4 -45 -12 -109 -169 -153 -372 -322 -660 -363 -619 -7 7 -13 90 -16 218 -5
204 -5 208 -33 258 -15 27 -52 75 -80 106 l-53 56 28 73 c31 84 34 128 13 168
-25 49 -71 54 -127 16 -78 -53 -89 -165 -24 -253 l36 -50 -54 -158 c-123 -362
-251 -554 -368 -554 -78 0 -145 139 -180 375 -19 130 -15 543 6 710 32 246 73
456 111 562 30 87 31 99 6 113 -23 12 -23 12 -37 2z m-186 -364 c30 -30 11
-92 -130 -427 -138 -331 -290 -637 -344 -697 l-35 -39 5 140 c3 92 12 168 25
221 28 113 88 298 118 364 14 30 33 73 43 95 49 113 151 252 233 316 52 42 66
46 85 27z m747 -508 c-10 -34 -22 -63 -26 -65 -11 -8 -31 52 -24 73 11 36 47
74 58 63 7 -7 5 -29 -8 -71z"/>
<path d="M5649 1533 c-6 -16 -12 -40 -15 -55 -2 -16 -6 -42 -9 -58 -6 -40 2
-34 49 35 34 49 38 59 28 80 -15 33 -40 32 -53 -2z"/>
<path d="M4874 1390 c-15 -22 -31 -40 -35 -40 -5 0 -9 -17 -9 -37 0 -22 4 -33
9 -27 11 11 71 144 66 144 -3 0 -17 -18 -31 -40z"/>
<path d="M2492 616 c-22 -24 -52 -46 -66 -50 -30 -7 -96 -63 -96 -81 0 -9 -15
-11 -52 -8 -73 6 -72 5 -48 36 18 23 29 27 71 27 27 0 49 4 49 9 0 11 -25 21
-53 21 -21 1 -21 2 6 25 23 20 39 25 83 25 56 0 73 15 28 26 -33 9 -172 -4
-197 -18 -19 -10 -19 -11 -3 -20 9 -5 30 -6 46 -3 40 9 38 3 -10 -30 -22 -15
-38 -30 -35 -33 2 -3 -4 -17 -15 -32 -36 -51 -29 -60 53 -60 52 0 80 5 102 18
27 17 31 17 41 3 10 -13 14 -13 37 2 19 12 27 13 30 4 3 -9 9 -9 26 1 27 16
31 15 31 -3 0 -19 10 -19 39 1 22 16 24 16 33 0 11 -20 25 -20 62 -1 27 14 31
14 38 0 11 -19 50 -2 42 19 -3 7 7 23 22 35 41 32 53 25 14 -9 -19 -16 -29
-29 -22 -30 6 0 12 -7 12 -16 0 -15 3 -15 26 1 25 16 28 16 36 1 12 -22 34
-20 69 5 23 16 29 17 29 5 0 -22 17 -29 40 -16 14 8 25 7 39 -2 16 -9 24 -8
48 8 15 10 41 25 58 32 l29 13 -24 -26 c-28 -30 -19 -32 25 -5 l32 20 -5 -25
c-3 -17 0 -25 10 -25 18 0 86 48 108 76 8 10 -3 5 -25 -12 -68 -52 -103 -51
-53 3 28 30 15 43 -15 15 -27 -25 -46 -30 -27 -7 18 22 4 32 -17 13 -10 -9
-28 -21 -40 -27 -21 -11 -22 -10 -13 13 6 16 6 27 0 31 -12 7 -62 -18 -80 -40
-15 -18 -70 -49 -70 -39 0 3 9 19 21 36 28 39 17 47 -22 14 -37 -31 -89 -60
-96 -52 -3 2 14 25 37 50 36 39 48 45 88 48 25 2 47 8 49 15 3 8 -6 10 -32 6
-30 -5 -34 -3 -29 11 8 20 -4 21 -25 2 -9 -8 -39 -19 -66 -24 -50 -9 -50 -9
-17 -17 36 -8 33 -19 -20 -57 -34 -24 -49 -17 -24 11 19 20 14 41 -8 41 -7 0
-39 -18 -72 -39 -70 -46 -104 -59 -104 -38 0 13 31 46 60 62 13 8 13 7 0 -9
-13 -17 -12 -18 5 -15 11 3 21 13 23 23 3 16 0 18 -25 12 -15 -4 -51 -23 -80
-42 -63 -42 -76 -43 -38 -4 16 16 25 33 22 37 -4 3 -13 0 -20 -9 -19 -24 -67
-52 -67 -39 0 6 7 14 15 17 8 4 15 13 15 22 0 13 -4 12 -22 -4 -35 -31 -78
-56 -90 -52 -6 2 22 37 61 77 39 40 71 77 71 82 0 19 -19 8 -58 -35z m-78 -87
c-10 -11 -28 -26 -39 -31 -14 -8 -12 -2 9 21 33 34 61 44 30 10z m658 -1 c-7
-7 -12 -8 -12 -2 0 14 12 26 19 19 2 -3 -1 -11 -7 -17z m-22 -23 c0 -8 -2 -15
-4 -15 -2 0 -12 -3 -21 -7 -15 -5 -16 -3 -6 15 13 25 31 29 31 7z"/>
<path d="M4151 592 c-54 -60 -141 -126 -141 -106 0 4 9 22 21 40 23 38 13 46
-17 13 -10 -12 -36 -30 -56 -40 -60 -31 -48 0 21 54 61 47 88 81 72 91 -14 9
-103 -57 -128 -94 -24 -35 -30 -75 -13 -85 6 -4 25 3 44 14 l34 21 5 -21 c4
-16 10 -19 28 -14 l22 7 -20 -28 c-26 -38 -35 -66 -24 -83 12 -19 47 1 71 42
30 49 24 55 -14 11 -38 -44 -54 -43 -27 2 21 34 121 92 121 69 0 -24 19 -27
50 -8 28 16 30 16 43 -1 12 -17 16 -17 50 -2 32 13 37 13 37 0 0 -18 10 -17
34 1 17 13 21 13 31 -2 12 -16 16 -15 53 11 66 45 85 73 24 36 -29 -18 -55
-31 -58 -27 -3 3 27 39 67 81 78 83 88 118 11 44 -26 -25 -58 -49 -71 -53 -13
-4 -44 -22 -68 -41 -25 -19 -48 -34 -53 -34 -5 0 -15 -3 -24 -6 -11 -4 -16 -1
-16 10 0 9 8 16 19 16 26 0 66 34 57 48 -12 19 -33 14 -68 -17 -35 -30 -98
-66 -98 -55 0 4 9 22 21 40 11 19 16 34 10 34 -5 0 -13 -5 -16 -10 -9 -14 -86
-63 -91 -57 -2 2 28 38 66 79 39 42 70 79 70 82 0 18 -24 -1 -79 -62z m-142 2
c-13 -14 -33 -30 -44 -36 -11 -5 -3 7 17 26 43 41 63 49 27 10z m311 -44 c0
-5 -10 -15 -22 -21 -23 -12 -23 -12 -4 10 21 23 26 26 26 11z m105 -10 c-3 -5
-20 -19 -38 -30 l-32 -22 33 31 c32 30 49 40 37 21z"/>
<path d="M3405 640 c-17 -5 -44 -23 -59 -39 -39 -41 -23 -61 45 -61 27 0 49
-4 49 -10 0 -18 -64 -43 -127 -48 -52 -4 -61 -7 -52 -18 18 -21 89 -16 145 10
82 38 79 68 -8 81 -27 4 -48 11 -48 15 0 13 84 48 120 50 53 3 58 0 25 -15
-29 -14 -29 -14 -5 -14 73 -1 62 53 -11 56 -24 1 -58 -2 -74 -7z"/>
<path d="M3560 595 c-8 -9 -8 -15 -2 -15 12 0 26 19 19 26 -2 2 -10 -2 -17
-11z"/>
<path d="M4067 603 c-12 -12 -7 -22 8 -17 8 4 15 10 15 15 0 11 -14 12 -23 2z"/>
<path d="M4227 603 c-12 -12 -7 -22 8 -17 8 4 15 10 15 15 0 11 -14 12 -23 2z"/>
<path d="M3800 549 c-46 -42 -98 -74 -107 -66 -2 3 10 21 27 41 23 25 28 36
17 36 -9 0 -19 -4 -22 -10 -3 -5 -14 -14 -25 -20 -15 -8 -17 -7 -12 13 5 21 4
21 -14 6 -36 -30 -47 -34 -35 -10 15 28 12 27 -49 -14 -70 -47 -91 -46 -55 1
22 29 24 35 10 32 -26 -5 -63 -74 -48 -89 9 -9 20 -7 48 10 44 25 46 26 38 4
-6 -17 -5 -17 13 -2 10 9 26 20 34 24 13 8 13 7 1 -8 -22 -27 -4 -33 28 -9 28
20 29 20 24 2 -7 -28 22 -36 55 -14 26 17 27 17 12 -2 -8 -10 -27 -34 -42 -52
-27 -32 -35 -52 -20 -52 4 1 25 23 47 50 32 39 44 48 63 43 39 -9 111 49 90
75 -9 10 -18 8 -47 -9 l-36 -21 40 41 c51 53 24 53 -35 0z m40 -49 c-14 -11
-32 -20 -40 -20 -8 0 1 11 20 24 40 28 57 24 20 -4z"/>
</g>
</svg>
