<?xml version="1.0" standalone="no"?>
<!DOCTYPE svg PUBLIC "-//W3C//DTD SVG 20010904//EN"
 "http://www.w3.org/TR/2001/REC-SVG-20010904/DTD/svg10.dtd">
<svg version="1.0" xmlns="http://www.w3.org/2000/svg"
 width="500.000000pt" height="500.000000pt" viewBox="0 0 500.000000 500.000000"
 preserveAspectRatio="xMidYMid meet">
<metadata>
Created by potrace 1.14, written by Peter Selinger 2001-2017
</metadata>
<g transform="translate(0.000000,500.000000) scale(0.100000,-0.100000)"
fill="#000000" stroke="none">
<path d="M865 3318 c-2 -7 -6 -31 -10 -52 -4 -22 -18 -69 -33 -105 -44 -112
-188 -380 -203 -381 -3 0 0 24 8 53 8 28 16 57 17 62 2 6 6 28 11 50 10 54 23
75 39 69 22 -8 38 31 35 84 -3 64 -15 85 -44 80 -20 -4 -24 0 -30 30 -5 29
-10 33 -30 30 -20 -4 -25 0 -32 31 -19 78 -75 40 -108 -74 -19 -63 -52 -224
-59 -290 -4 -27 -11 -84 -16 -125 -9 -73 -12 -103 -25 -240 -6 -57 -11 -69
-46 -108 -45 -48 -45 -63 -2 -120 23 -31 25 -39 19 -120 -25 -379 -28 -670 -5
-717 8 -17 24 -31 35 -33 14 -2 25 -14 30 -35 6 -20 18 -33 32 -37 13 -3 28
-16 35 -30 7 -14 21 -26 32 -28 20 -3 20 3 20 275 -1 153 1 283 3 290 2 7 17
-14 33 -46 28 -56 169 -211 226 -248 53 -35 134 -7 191 65 32 40 248 418 254
442 2 8 7 18 12 21 4 4 3 17 -4 29 -10 18 -9 21 1 15 9 -6 10 -2 6 16 -4 13
-7 29 -7 34 0 6 -9 -1 -20 -15 -10 -14 -22 -22 -25 -18 -7 7 14 49 30 60 19
14 33 -61 34 -189 2 -179 4 -183 109 -285 87 -85 91 -87 117 -82 15 3 38 12
51 21 31 20 121 157 167 253 74 157 107 232 113 254 6 23 -16 51 -36 44 -6 -2
-59 -100 -118 -217 -68 -137 -116 -220 -131 -230 -20 -13 -18 -7 14 43 20 32
63 111 95 175 109 219 128 281 88 287 -23 3 -29 -5 -85 -127 -52 -113 -135
-272 -158 -303 -7 -10 -18 -15 -24 -11 -7 4 0 23 21 52 35 51 152 285 188 376
17 43 20 61 12 69 -31 31 -43 16 -126 -156 -46 -95 -88 -176 -93 -179 -6 -4
-10 9 -11 29 -2 45 -43 122 -92 169 l-38 37 18 42 c10 22 22 64 25 91 6 42 4
54 -15 78 -12 15 -28 27 -36 27 -8 0 -14 7 -14 15 0 9 -14 24 -30 33 -17 9
-33 26 -36 37 -21 63 -96 57 -143 -10 -34 -50 -33 -111 2 -164 l28 -43 -24
-36 c-21 -31 -109 -182 -204 -352 -11 -19 -34 -60 -51 -90 -35 -62 -87 -120
-108 -120 -8 0 -13 3 -12 8 5 15 -68 201 -118 300 -29 56 -51 110 -49 120 2 9
4 37 4 62 1 42 7 53 77 135 156 184 308 446 374 643 33 100 35 139 8 156 -24
15 -35 0 -43 -54 -13 -88 -99 -274 -204 -444 -63 -100 -165 -241 -182 -252
-28 -17 -12 12 54 102 129 172 247 388 300 544 34 104 39 134 22 156 -20 27
-48 7 -52 -37 -12 -112 -226 -525 -313 -604 -33 -30 -22 0 27 72 110 163 198
334 252 486 33 95 38 136 19 155 -16 16 -38 15 -43 0z m-317 -199 c-6 -16 -13
-28 -15 -25 -8 8 6 56 17 56 5 0 5 -13 -2 -31z m19 -407 c-10 -10 -17 -25 -18
-33 0 -11 -2 -11 -6 -1 -5 12 23 52 35 52 3 0 -2 -8 -11 -18z m-92 -111 c3 -5
2 -12 -3 -15 -5 -3 -9 1 -9 9 0 17 3 19 12 6z m711 -53 c-1 -7 -8 -24 -16 -38
-7 -14 -12 -27 -11 -30 1 -2 -2 -6 -8 -8 -16 -5 -13 41 5 66 17 24 33 29 30
10z m54 -103 c-6 -8 -9 -18 -6 -24 3 -5 0 -11 -8 -14 -11 -4 -11 4 3 46 12 38
17 46 19 29 2 -13 -2 -29 -8 -37z m76 -37 c-5 -39 -17 -69 -26 -63 -5 3 -7 11
-5 18 25 72 35 87 31 45z m-123 -105 c4 -3 1 -13 -7 -22 -12 -15 -186 -309
-186 -316 0 -2 -21 -39 -46 -82 -43 -73 -63 -97 -72 -88 -8 8 285 515 298 515
4 0 10 -3 13 -7z m-88 -329 c-90 -159 -137 -229 -119 -179 9 24 182 334 197
354 6 7 13 9 14 4 2 -5 -40 -86 -92 -179z"/>
<path d="M2693 3208 c-6 -7 -28 -65 -49 -129 l-38 -117 -31 14 c-55 23 -99 3
-185 -85 -61 -61 -86 -97 -132 -186 -117 -232 -188 -485 -184 -659 2 -89 18
-134 50 -142 12 -3 28 -20 37 -37 11 -22 24 -33 43 -35 14 -2 24 -8 20 -13 -9
-16 26 -49 52 -49 32 0 74 46 128 139 50 86 119 230 119 249 0 6 4 12 8 12 10
0 18 39 9 45 -10 6 -7 31 4 42 4 4 7 -1 6 -12 -1 -11 -1 -22 0 -25 4 -12 8
-39 13 -100 8 -89 31 -193 59 -265 19 -50 39 -77 125 -161 110 -108 137 -123
201 -105 78 23 141 84 206 202 44 80 96 206 88 213 -3 3 -1 6 5 6 5 0 10 -30
11 -66 1 -51 6 -74 24 -100 13 -19 29 -34 35 -34 7 0 20 -14 28 -30 9 -17 27
-36 40 -42 14 -6 27 -19 30 -29 7 -21 39 -34 75 -30 48 5 114 88 192 242 l41
83 16 -32 c22 -47 59 -47 109 1 31 29 64 79 59 88 -1 2 6 -5 15 -16 10 -11 18
-23 18 -27 0 -4 8 -9 18 -12 9 -3 25 -20 35 -37 9 -17 26 -33 37 -36 11 -3 20
-8 20 -12 0 -4 9 -17 20 -29 46 -49 134 -11 210 91 43 58 79 64 97 17 14 -38
45 -39 71 -2 10 15 31 58 47 95 l29 68 15 -25 c9 -15 23 -29 33 -32 9 -2 26
-20 37 -39 11 -19 27 -35 36 -35 8 0 21 -11 27 -25 29 -63 97 -38 174 63 84
112 96 135 79 158 -17 23 -39 13 -70 -32 -27 -38 -55 -46 -31 -9 9 14 23 36
32 50 17 27 13 52 -10 61 -17 7 -41 -16 -79 -74 -25 -39 -47 -54 -47 -33 0 5
20 40 44 77 36 54 43 71 35 86 -6 12 -19 18 -31 16 -20 -3 -22 1 -19 53 2 58
-13 89 -45 89 -8 0 -20 14 -25 30 -8 21 -18 30 -33 30 -16 0 -24 9 -31 33 -19
64 -98 34 -155 -59 -13 -19 -30 -34 -41 -34 -31 0 -61 -64 -85 -180 -6 -27
-24 -52 -24 -32 0 20 38 175 55 221 16 48 10 65 -21 59 -23 -4 -41 -41 -69
-139 -17 -61 -35 -94 -93 -172 -40 -52 -77 -99 -83 -103 -7 -4 -9 -3 -6 3 3 5
9 32 12 59 4 27 8 60 10 74 16 97 17 136 2 149 -12 10 -21 10 -38 1 -16 -9
-20 -9 -14 0 10 17 -3 57 -21 64 -9 4 -23 1 -30 -5 -11 -9 -14 -5 -14 24 0 43
-20 63 -47 47 -10 -7 -58 -81 -108 -165 -49 -84 -92 -151 -94 -149 -9 8 33
110 50 121 30 22 1 80 -32 63 -19 -11 -29 -31 -72 -140 -31 -77 -34 -63 -8 35
20 77 37 115 51 115 18 0 10 49 -10 60 -28 15 -53 -16 -94 -124 -20 -50 -69
-158 -110 -241 -65 -130 -75 -145 -75 -115 -2 50 -43 132 -91 180 l-41 41 21
56 c29 78 29 141 0 165 -12 10 -29 18 -37 18 -8 0 -12 3 -9 8 7 12 -17 38 -42
46 -12 4 -22 15 -22 26 0 11 -11 27 -25 36 -57 37 -134 -24 -142 -114 -4 -40
0 -54 27 -94 l32 -48 -37 -112 c-70 -212 -158 -379 -227 -432 -56 -42 -57 -41
-77 64 -17 85 -27 233 -25 349 2 105 12 273 18 308 2 10 7 45 11 78 9 84 53
289 76 359 10 33 19 70 19 82 0 50 -53 41 -70 -12 -7 -20 -14 -33 -16 -31 -2
2 3 24 11 48 19 52 13 89 -14 89 -26 0 -35 -15 -61 -95 -12 -38 -26 -79 -31
-90 -16 -35 1 43 28 128 13 43 23 88 21 100 -3 25 -39 35 -55 15z m94 -230
c-3 -8 -6 -5 -6 6 -1 11 2 17 5 13 3 -3 4 -12 1 -19z m-232 -68 c3 -5 -8 -16
-24 -25 -85 -44 -175 -172 -269 -385 -20 -46 -79 -230 -87 -272 -3 -13 -9 -47
-15 -77 -5 -30 -12 -57 -15 -59 -18 -18 21 180 60 304 74 238 193 445 290 505
33 21 51 24 60 9z m-22 -122 c-9 -18 -17 -35 -18 -38 0 -3 -6 -14 -14 -25 -10
-16 -11 -17 -7 -2 3 11 2 15 -4 12 -6 -3 -10 -10 -10 -15 0 -5 -11 -21 -25
-36 -14 -15 -28 -38 -31 -51 -4 -13 -9 -23 -13 -23 -10 0 -37 -71 -33 -84 2
-6 0 -8 -4 -4 -11 11 -86 -157 -99 -225 -2 -9 -6 -21 -9 -25 -3 -5 -7 -19 -9
-33 -3 -13 -6 -28 -8 -34 -1 -5 1 -18 6 -28 5 -11 2 -24 -8 -35 -8 -9 -18 -27
-22 -40 -11 -37 -16 -20 -5 19 5 19 12 46 15 62 3 15 8 39 11 55 13 66 79 245
122 332 46 93 116 198 155 233 28 24 30 22 10 -15z m18 -209 c-11 -23 -18 -46
-15 -50 3 -5 1 -9 -3 -9 -5 0 -21 -30 -37 -67 -98 -230 -203 -440 -221 -440
-9 0 3 34 40 106 79 157 243 524 247 554 0 7 3 -2 5 -20 3 -19 -4 -49 -16 -74z
m-102 5 c-14 -13 -16 -13 -16 0 0 8 4 13 9 10 4 -3 8 0 8 7 0 7 3 9 7 5 4 -3
0 -13 -8 -22z m-22 -44 c1 -11 -2 -22 -6 -24 -6 -4 -7 26 -2 42 3 8 7 -1 8
-18z m743 6 c0 -7 -7 -26 -14 -42 -8 -15 -13 -31 -10 -36 3 -4 3 -8 0 -8 -3 0
-10 8 -15 18 -7 13 -5 28 6 50 16 33 33 42 33 18z m1361 -67 c-12 -19 -24 -34
-28 -34 -5 0 -14 -4 -22 -9 -17 -11 -13 -2 33 67 24 36 32 43 34 28 2 -10 -6
-34 -17 -52z m-1291 6 c0 -4 -7 -19 -15 -36 -9 -16 -13 -35 -9 -42 5 -8 4 -9
-4 -2 -13 12 4 85 20 85 4 0 8 -2 8 -5z m-840 -20 c-7 -8 -17 -15 -23 -15 -6
0 -2 7 9 15 25 19 30 19 14 0z m-10 -29 c0 -2 -8 -10 -17 -17 -16 -13 -17 -12
-4 4 13 16 21 21 21 13z m900 -81 c-6 -19 -16 -35 -21 -35 -13 0 -11 9 8 66
14 38 18 44 21 26 2 -12 -2 -38 -8 -57z m-738 33 c-2 -18 -5 -52 -5 -75 0 -24
-5 -43 -9 -43 -5 0 -6 5 -3 10 3 6 -1 10 -10 10 -9 0 -13 -4 -10 -10 3 -5 2
-10 -3 -10 -5 0 -17 -21 -27 -47 -25 -68 -152 -314 -180 -349 -42 -53 -37 -18
8 52 53 84 199 384 230 477 10 28 15 20 9 -15z m1351 -50 c-3 -13 -10 -28 -14
-34 -5 -6 -6 -14 -2 -17 3 -4 2 -7 -4 -7 -6 0 -23 -20 -37 -45 -15 -25 -29
-45 -32 -45 -11 0 12 58 44 112 35 60 54 75 45 36z m-1553 8 c0 -2 -8 -10 -17
-17 -16 -13 -17 -12 -4 4 13 16 21 21 21 13z m2168 -57 c-1 -22 -6 -43 -12
-46 -5 -3 -6 -1 -2 5 4 7 5 12 2 12 -3 0 -12 -12 -20 -27 -25 -45 -19 0 6 52
12 25 24 45 25 45 2 0 3 -18 1 -41z m-1369 -125 c-82 -247 -196 -431 -279
-449 -42 -9 -49 0 -13 19 99 53 205 226 280 458 21 64 42 113 46 108 5 -4 -10
-66 -34 -136z m1250 94 c-12 -24 -24 -45 -26 -48 -10 -10 9 45 23 68 24 37 26
25 3 -20z m-2105 -13 c-4 -8 -11 -15 -16 -15 -6 0 -5 6 2 15 7 8 14 15 16 15
2 0 1 -7 -2 -15z m952 -65 c1 -16 -2 -27 -7 -25 -4 3 -17 -25 -29 -62 -60
-183 -139 -333 -210 -397 -68 -61 -69 -40 -2 30 50 52 75 91 122 188 56 116
110 261 110 294 0 28 15 1 16 -28z m991 11 c-3 -16 -13 -37 -23 -48 -11 -10
-39 -42 -63 -71 -41 -50 -61 -63 -61 -43 0 6 22 36 48 68 26 32 58 73 71 91
28 40 34 40 28 3z m-338 -28 c0 -20 -17 -63 -18 -49 -1 5 -15 -11 -31 -36 -34
-52 -60 -77 -60 -59 0 6 20 40 45 77 25 36 45 69 45 75 0 5 5 9 10 9 6 0 10
-8 9 -17z m-346 -162 c-31 -58 -59 -108 -63 -111 -4 -3 -13 -16 -20 -30 -8
-15 -15 -20 -18 -12 -2 6 -8 10 -13 7 -5 -4 9 21 32 55 22 33 58 97 81 141 25
50 43 76 48 69 4 -7 -16 -58 -47 -119z m727 94 c0 -17 -129 -152 -151 -158
-13 -4 -3 12 32 46 28 29 63 67 76 85 22 28 43 41 43 27z m-610 -40 c0 -2 -23
-51 -51 -109 -57 -115 -115 -199 -143 -204 -12 -3 -2 17 36 66 29 39 73 111
98 161 25 50 48 91 53 91 4 0 7 -2 7 -5z"/>
<path d="M2241 2164 c0 -11 3 -14 6 -6 3 7 2 16 -1 19 -3 4 -6 -2 -5 -13z"/>
</g>
</svg>
