<?xml version="1.0" standalone="no"?>
<!DOCTYPE svg PUBLIC "-//W3C//DTD SVG 20010904//EN"
 "http://www.w3.org/TR/2001/REC-SVG-20010904/DTD/svg10.dtd">
<svg version="1.0" xmlns="http://www.w3.org/2000/svg"
 width="666.000000pt" height="666.000000pt" viewBox="0 0 666.000000 666.000000"
 preserveAspectRatio="xMidYMid meet">
<metadata>
Created by potrace 1.14, written by Peter Selinger 2001-2017
</metadata>
<g transform="translate(0.000000,666.000000) scale(0.100000,-0.100000)"
fill="#000000" stroke="none">
<path d="M1320 4321 c-5 -11 -10 -33 -10 -50 0 -59 -86 -259 -195 -455 -59
-107 -80 -135 -95 -126 -8 5 -8 9 -2 11 6 2 21 49 32 103 29 135 34 146 64
146 36 0 45 24 40 109 -4 82 -16 105 -51 98 -13 -2 -23 -1 -24 2 -7 62 -23 83
-58 79 -22 -3 -26 1 -29 27 -10 85 -76 68 -117 -30 -21 -52 -70 -258 -85 -360
-18 -124 -18 -126 -25 -195 -4 -36 -9 -72 -10 -80 -2 -13 -8 -73 -20 -210 -1
-14 -3 -39 -4 -57 -1 -23 -14 -45 -46 -80 -63 -67 -65 -82 -19 -145 20 -29 37
-57 37 -63 -1 -28 -16 -296 -19 -335 -10 -119 -12 -560 -3 -600 14 -66 29 -90
56 -90 14 0 26 -7 29 -17 14 -45 29 -62 52 -65 20 -2 28 -11 34 -35 6 -23 16
-35 33 -39 41 -10 47 1 39 84 -8 89 -4 558 5 607 1 6 15 -18 32 -52 27 -56
153 -200 200 -229 8 -5 22 -21 31 -35 20 -32 79 -61 123 -61 93 0 165 78 306
337 18 33 65 118 105 189 40 71 71 133 68 138 -3 4 0 8 7 8 7 0 9 10 5 28 -3
15 -9 37 -11 50 -3 12 -1 22 5 22 5 0 10 -6 11 -12 0 -7 2 -24 4 -38 2 -14 4
-86 5 -160 0 -74 5 -151 10 -172 12 -41 55 -98 75 -98 7 0 23 -16 34 -36 12
-20 29 -38 39 -41 9 -2 29 -22 44 -44 24 -33 33 -39 64 -39 81 0 170 115 303
392 98 205 122 268 110 291 -17 29 -55 21 -72 -15 -86 -188 -119 -258 -165
-348 -71 -136 -143 -240 -168 -240 -18 0 -25 28 -9 34 33 12 124 155 210 331
143 292 154 335 90 335 -18 0 -28 -12 -49 -55 -14 -31 -26 -58 -26 -62 0 -13
-182 -367 -210 -408 -17 -25 -36 -44 -43 -42 -7 1 -11 -4 -9 -11 1 -8 -2 -11
-9 -6 -8 5 -10 2 -6 -8 6 -17 -16 -19 -30 -3 -4 4 -3 6 3 2 35 -20 358 604
338 656 -4 11 -17 17 -36 17 -26 0 -32 -6 -55 -57 -41 -95 -142 -307 -153
-323 -6 -8 -14 -24 -19 -35 -5 -12 -17 -27 -27 -35 -16 -14 -16 -13 -7 5 31
58 -8 159 -96 250 l-54 56 21 47 c12 26 25 65 30 87 7 36 8 50 3 100 -2 21
-42 55 -65 55 -10 0 -16 3 -13 6 12 12 -27 63 -55 73 -15 6 -28 17 -28 25 0
27 -38 56 -72 56 -45 0 -91 -31 -112 -74 -36 -77 -32 -128 14 -198 l30 -46
-38 -58 c-37 -57 -72 -117 -253 -438 -46 -82 -101 -168 -122 -192 -37 -42 -73
-57 -74 -31 -1 29 -100 271 -152 372 -32 61 -56 121 -55 135 1 14 3 50 5 80 2
50 7 61 53 115 28 33 54 62 57 65 3 3 43 53 87 113 134 179 236 360 337 602
28 67 55 168 55 207 0 32 -4 39 -26 44 -33 8 -41 -1 -49 -56 -19 -132 -151
-405 -307 -640 -68 -101 -174 -240 -183 -240 -18 0 2 47 38 92 141 173 263
377 360 600 94 217 112 328 52 328 -29 0 -33 -7 -40 -56 -16 -130 -161 -428
-328 -676 -29 -43 -56 -76 -62 -74 -5 1 -16 -4 -23 -13 -11 -14 -11 -12 -2 7
6 12 16 20 22 16 7 -4 8 -3 4 5 -4 6 11 38 37 74 188 264 368 671 343 772 -8
31 -50 34 -66 6z m-380 -209 c0 -10 -7 -27 -15 -38 -13 -18 -14 -18 -9 6 9 38
13 50 19 50 3 0 5 -8 5 -18z m73 -447 c-3 -9 -8 -14 -10 -11 -3 3 -2 9 2 15 9
16 15 13 8 -4z m-20 -30 c4 -8 3 -16 -1 -19 -4 -3 -9 4 -9 15 -2 23 3 25 10 4z
m-37 -57 c-9 -12 -16 -19 -16 -15 0 11 24 47 28 42 2 -2 -3 -14 -12 -27z m-16
-32 c0 -3 -4 -8 -10 -11 -5 -3 -10 -1 -10 4 0 6 5 11 10 11 6 0 10 -2 10 -4z
m775 -168 c-3 -13 -7 -28 -7 -35 -1 -7 -5 -10 -10 -7 -7 5 -12 -13 -11 -44 1
-10 -2 -10 -13 -1 -19 16 -17 38 6 77 23 37 46 44 35 10z m85 -77 c0 -11 -5
-23 -10 -26 -6 -4 -8 -11 -5 -16 4 -5 1 -9 -5 -9 -6 0 -8 -4 -5 -10 3 -5 1
-10 -5 -10 -6 0 -9 -4 -5 -9 3 -5 1 -12 -5 -16 -15 -9 -12 8 9 58 11 25 17 48
14 51 -4 3 -1 6 5 6 7 0 12 -9 12 -19z m76 -103 c-4 -24 -12 -58 -18 -77 -10
-31 -12 -33 -23 -17 -11 14 -10 25 5 59 9 23 20 50 23 60 12 32 20 17 13 -25z
m-146 -123 c0 -7 -4 -15 -8 -17 -8 -3 -102 -144 -102 -153 0 -2 -14 -28 -32
-57 -17 -29 -43 -75 -58 -103 -165 -306 -237 -405 -296 -405 l-28 0 33 24 c63
47 126 133 213 296 26 47 64 117 87 155 22 39 50 88 62 110 73 135 129 199
129 150z m73 -95 c3 -11 0 -20 -6 -20 -17 0 -70 -84 -184 -290 -157 -282 -192
-340 -208 -340 -19 0 -19 24 -1 39 12 10 51 75 139 231 98 175 194 341 213
369 13 19 20 39 17 45 -4 6 0 5 9 -2 9 -7 18 -22 21 -32z"/>
<path d="M3566 4188 c-9 -13 -32 -74 -52 -137 -55 -175 -50 -166 -79 -147
-109 72 -331 -137 -450 -424 -15 -36 -33 -78 -41 -95 -49 -109 -119 -377 -131
-505 -17 -176 1 -267 55 -287 11 -5 31 -24 44 -43 13 -19 34 -36 46 -38 12 -2
22 -9 22 -16 0 -30 41 -66 74 -66 60 0 114 73 230 306 76 153 105 224 99 242
-3 6 -1 12 5 12 5 0 9 -6 9 -12 1 -12 7 -72 18 -178 12 -108 47 -234 87 -314
21 -43 226 -253 266 -275 55 -29 158 -5 222 52 45 40 117 140 164 227 52 98
99 217 91 231 -4 5 -2 9 3 9 5 0 11 -42 14 -92 4 -102 19 -138 67 -163 15 -7
33 -25 40 -39 8 -14 27 -31 43 -38 15 -7 28 -17 28 -23 0 -6 11 -23 25 -38 43
-46 102 -34 163 32 59 64 199 312 187 331 -2 4 3 7 11 7 8 0 17 -11 20 -23 18
-71 86 -69 152 4 23 26 42 53 42 59 0 7 5 13 10 13 7 0 7 6 0 20 -19 35 -1 22
26 -20 15 -22 37 -43 50 -46 13 -4 24 -11 24 -18 1 -14 46 -66 58 -66 6 0 18
-12 28 -27 29 -45 44 -56 75 -55 68 2 114 33 200 136 71 84 101 93 118 34 13
-41 49 -60 74 -39 15 12 97 179 102 208 2 10 4 20 4 23 1 3 7 -6 14 -20 7 -14
26 -34 43 -45 17 -11 38 -32 47 -48 9 -15 27 -32 40 -38 14 -6 30 -22 35 -35
33 -70 115 -66 174 9 18 23 35 44 38 47 11 10 96 136 110 163 12 25 12 30 -7
49 -12 11 -26 17 -33 13 -6 -4 -49 -58 -95 -120 -88 -119 -101 -133 -116 -118
-5 5 11 33 40 68 64 79 141 193 141 209 0 7 -9 21 -20 31 -19 17 -21 17 -41
-1 -11 -10 -41 -47 -65 -81 -25 -35 -50 -61 -55 -58 -11 7 -2 25 57 113 24 36
44 71 44 77 0 7 -9 20 -21 31 -16 14 -24 16 -38 7 -17 -10 -18 -6 -13 62 4 65
2 75 -18 95 -13 13 -29 20 -41 17 -15 -4 -19 0 -19 19 0 13 -9 33 -21 45 -12
12 -29 19 -40 16 -15 -4 -19 0 -19 19 0 29 -33 64 -59 64 -32 0 -91 -53 -137
-123 -18 -27 -30 -36 -43 -32 -11 3 -25 -3 -35 -14 -22 -24 -68 -149 -61 -162
4 -5 1 -9 -6 -9 -6 0 -9 -8 -6 -20 3 -11 0 -20 -6 -20 -6 0 -7 -3 -4 -6 3 -4
2 -15 -4 -26 -6 -11 -13 -18 -15 -15 -8 8 26 158 52 235 14 40 24 82 22 94 -4
29 -34 31 -59 5 -18 -20 -65 -147 -75 -207 -3 -14 -13 -36 -23 -50 -10 -14
-40 -57 -67 -96 -67 -96 -114 -152 -114 -134 0 8 7 62 15 120 28 192 29 205
10 220 -15 12 -21 12 -44 -1 l-26 -15 3 38 c2 21 -1 45 -8 53 -16 19 -49 19
-56 0 -11 -29 -20 -15 -16 25 3 29 -1 47 -13 60 -33 36 -41 26 -196 -232 -51
-86 -95 -155 -97 -153 -11 11 34 129 59 155 35 36 35 44 8 71 -18 18 -23 19
-42 6 -26 -17 -61 -82 -84 -157 -23 -75 -37 -88 -28 -25 11 82 45 173 70 189
14 9 22 23 20 33 -2 10 -4 21 -4 25 -1 4 -10 12 -22 18 -17 9 -25 8 -41 -7
-19 -16 -78 -133 -78 -154 0 -19 -210 -459 -219 -459 -3 0 -6 19 -7 43 -1 57
-43 137 -108 203 l-53 55 23 57 c47 116 41 204 -16 225 -18 7 -33 21 -36 34
-7 27 -39 57 -53 48 -6 -3 -16 6 -22 22 -17 46 -39 63 -80 63 -53 0 -104 -46
-123 -110 -18 -61 -8 -107 37 -172 l34 -49 -57 -162 c-99 -283 -183 -437 -282
-515 -21 -17 -80 -34 -73 -21 4 5 -4 71 -16 147 -17 105 -22 182 -23 327 -1
170 7 358 19 440 2 17 6 49 9 71 18 148 60 339 118 542 10 36 10 44 -4 58 -21
21 -54 10 -72 -24 -7 -15 -21 -58 -31 -96 -11 -38 -21 -64 -23 -58 -2 7 11 62
29 123 34 117 33 141 -8 147 -32 5 -46 -23 -92 -178 -11 -36 -20 -58 -20 -50
-1 13 30 129 62 233 8 27 8 43 1 55 -17 26 -50 26 -68 0z m-166 -363 c0 -8 -9
-15 -19 -15 -43 0 -179 -150 -246 -271 -91 -167 -196 -459 -221 -615 -7 -48
-14 -57 -14 -18 0 49 27 159 75 309 90 283 207 488 337 593 43 34 88 43 88 17z
m-26 -149 c-11 -25 -22 -46 -26 -46 -5 0 -8 -7 -8 -15 0 -8 -6 -12 -13 -10 -7
3 -23 -13 -37 -35 -14 -22 -27 -40 -31 -40 -6 0 -102 -189 -138 -270 -11 -25
-29 -76 -42 -115 -12 -38 -31 -97 -42 -130 -11 -33 -21 -70 -22 -82 -2 -12 -6
-26 -9 -32 -4 -5 -2 -12 3 -16 6 -3 8 -12 5 -20 -4 -8 -11 -12 -17 -8 -6 3 -7
1 -3 -5 4 -6 0 -24 -9 -39 -15 -28 -15 -28 -10 -3 36 195 102 425 145 510 10
19 29 60 43 91 14 31 46 89 70 129 46 73 147 194 155 186 2 -3 -4 -25 -14 -50z
m-47 -101 c0 -8 -4 -12 -9 -9 -5 3 -6 10 -3 15 9 13 12 11 12 -6z m-7 -29 c0
-3 -4 -8 -10 -11 -5 -3 -10 -1 -10 4 0 6 5 11 10 11 6 0 10 -2 10 -4z m94 -54
c-4 -20 -7 -40 -6 -44 1 -5 -3 -8 -9 -8 -6 0 -9 -9 -6 -20 3 -11 2 -18 -3 -15
-4 3 -17 -19 -29 -48 -34 -82 -37 -89 -64 -147 -14 -30 -33 -73 -42 -95 -79
-186 -189 -398 -207 -403 -10 -2 -16 -8 -13 -12 3 -5 -3 -16 -12 -26 -10 -10
-18 -20 -18 -24 0 -4 -8 -14 -17 -24 -10 -10 -18 -15 -18 -11 0 9 33 59 45 67
5 4 10 12 10 18 0 6 6 14 13 19 7 4 14 16 16 27 3 10 27 64 54 119 55 109 142
294 142 300 0 2 13 32 29 67 40 86 117 267 126 298 12 36 19 6 9 -38z m-112 6
c-2 -10 -6 -18 -7 -18 -1 0 -5 8 -7 18 -3 11 0 19 7 19 7 0 10 -8 7 -19z m850
-124 c-2 -10 -8 -22 -14 -25 -5 -4 -11 -18 -11 -32 -1 -14 -5 -23 -9 -21 -3 2
-9 -2 -11 -8 -6 -13 -11 26 -7 51 3 24 32 62 44 58 6 -2 9 -13 8 -23z m1698
-7 c0 -24 -59 -107 -76 -107 -18 0 -17 1 40 87 22 34 36 42 36 20z m-2627 -50
c-4 -7 -8 -16 -8 -21 0 -5 -7 -11 -15 -13 -13 -4 -13 -3 0 6 8 6 11 11 6 11
-5 0 -3 6 3 13 6 8 7 18 3 22 -4 5 -1 5 6 1 7 -4 9 -13 5 -19z m1012 -19 c-3
-12 -9 -26 -14 -31 -5 -5 -7 -16 -4 -23 3 -8 0 -14 -6 -14 -7 0 -11 -6 -9 -14
2 -8 -1 -14 -7 -13 -12 2 -7 31 6 35 5 2 7 7 4 12 -7 11 15 70 25 70 5 0 7
-10 5 -22z m-1035 -38 c0 -5 -5 -10 -11 -10 -5 0 -7 5 -4 10 3 6 8 10 11 10 2
0 4 -4 4 -10z m-15 -41 c-4 -5 -12 -9 -18 -8 -9 0 -8 2 1 6 6 2 9 10 6 15 -4
7 -2 8 5 4 6 -4 9 -12 6 -17z m214 -34 c-1 -36 -6 -52 -13 -48 -8 5 -8 3 0 -8
5 -8 10 -20 10 -28 -1 -17 -26 -28 -26 -11 0 6 4 9 8 6 5 -3 9 1 9 9 0 21 -24
0 -33 -28 -21 -65 -191 -409 -242 -489 -23 -35 -44 -58 -55 -58 -20 0 -21 0
33 80 58 86 191 356 271 547 19 46 35 83 37 83 1 0 2 -25 1 -55z m905 -13 c-7
-31 -13 -60 -14 -64 0 -14 -18 -8 -24 7 -7 18 33 127 44 120 5 -3 2 -31 -6
-63z m-1150 -7 c-4 -8 -11 -15 -16 -15 -6 0 -5 6 2 15 7 8 14 15 16 15 2 0 1
-7 -2 -15z m1890 -53 c-4 -15 -6 -31 -5 -35 1 -5 -3 -6 -9 -2 -5 3 -10 2 -10
-3 0 -8 -62 -107 -76 -122 -3 -2 -3 10 0 27 7 39 100 195 104 175 2 -7 0 -26
-4 -40z m-1910 13 c-4 -8 -11 -15 -16 -15 -6 0 -5 6 2 15 7 8 14 15 16 15 2 0
1 -7 -2 -15z m2664 -83 c-7 -9 -8 -13 -2 -9 6 3 11 0 11 -7 0 -8 -6 -12 -13
-9 -6 2 -15 -1 -20 -8 -5 -8 -3 -10 7 -4 8 4 1 -4 -15 -19 -16 -14 -31 -24
-34 -22 -2 3 13 42 34 87 39 81 39 81 42 45 2 -21 -3 -45 -10 -54z m-2684 33
c-9 -14 -18 -25 -20 -25 -7 0 10 35 20 42 17 12 17 9 0 -17z m1014 -152 c-27
-81 -56 -164 -65 -183 -92 -202 -142 -279 -225 -347 -8 -7 -31 -19 -51 -28
-47 -20 -59 -1 -12 21 111 52 246 277 340 564 43 130 43 132 54 126 4 -3 -14
-72 -41 -153z m-730 122 c-3 -27 -10 -25 -15 5 -2 11 2 20 7 20 5 0 9 -11 8
-25z m-327 -58 c-10 -9 -11 -8 -5 6 3 10 9 15 12 12 3 -3 0 -11 -7 -18z m1176
-38 c-2 -7 -7 -20 -11 -28 -7 -10 -5 -12 5 -7 8 4 5 0 -5 -8 -11 -9 -16 -16
-12 -16 5 0 4 -6 -2 -12 -6 -7 -11 -16 -11 -20 -1 -4 -3 -13 -5 -20 -3 -7 -12
-36 -21 -65 -64 -203 -198 -427 -284 -472 -21 -12 -43 5 -24 18 50 33 128 127
176 211 44 77 113 241 148 354 20 66 36 102 40 93 4 -7 7 -20 6 -28z m1213 7
c0 -36 -152 -221 -175 -212 -6 2 -17 -5 -24 -16 -7 -11 -15 -17 -19 -13 -8 7
-6 14 5 18 4 1 23 20 43 42 19 22 43 49 53 60 10 11 39 48 64 83 25 34 48 62
50 62 1 0 3 -11 3 -24z m-421 -68 c-6 -11 -5 -18 4 -21 8 -4 7 -6 -3 -7 -8 0
-37 -30 -64 -67 -35 -48 -51 -62 -57 -52 -5 9 -3 22 6 34 8 11 36 52 63 91 34
51 49 66 53 55 4 -9 3 -24 -2 -33z m-359 -68 c-4 -3 -31 -50 -60 -105 -61
-115 -119 -205 -128 -202 -4 1 -8 -2 -9 -7 -2 -14 -25 -25 -41 -19 -11 5 -9 9
9 19 13 7 24 17 24 24 0 6 5 14 10 18 13 8 100 148 118 188 7 16 26 54 42 84
26 51 29 53 35 30 4 -14 3 -27 0 -30z m820 -24 c-90 -100 -136 -149 -151 -157
-34 -18 -13 18 59 99 40 45 72 86 72 91 0 4 11 6 24 4 l25 -5 -29 -32z m-738
-23 c2 -10 -6 -35 -19 -56 -13 -20 -35 -62 -49 -93 -33 -73 -104 -182 -138
-213 -20 -19 -29 -22 -38 -13 -9 9 -3 22 29 55 48 49 125 172 168 270 31 69
41 80 47 50z m-1856 -48 c-1 -13 -4 -27 -7 -30 -5 -4 -4 41 0 53 4 10 8 -2 7
-23z"/>
<path d="M4516 2095 c-15 -14 -30 -25 -34 -25 -4 0 -12 -10 -17 -22 -6 -12
-23 -25 -38 -29 -16 -4 -44 -19 -63 -34 -38 -29 -104 -59 -104 -48 0 5 19 16
41 27 27 12 39 24 37 35 -5 27 -41 23 -77 -9 -18 -17 -40 -29 -48 -26 -8 3
-12 2 -9 -3 3 -5 -1 -12 -10 -15 -26 -10 -26 -7 -5 23 12 16 21 32 21 35 0 12
-28 5 -33 -8 -5 -12 -60 -46 -75 -46 -3 0 11 17 31 38 91 93 109 117 92 120
-10 2 -27 -8 -39 -23 -48 -62 -119 -126 -133 -121 -8 3 -12 2 -9 -3 3 -5 -1
-12 -10 -15 -27 -10 -27 -7 0 29 24 31 25 35 9 35 -10 0 -24 -9 -31 -20 -7
-12 -17 -18 -22 -15 -6 3 -10 1 -10 -4 0 -6 -6 -11 -14 -11 -8 0 -16 -6 -19
-12 -3 -10 -8 -10 -16 -2 -10 9 -3 17 26 35 21 13 42 22 48 21 5 -2 7 0 2 4
-9 9 43 65 54 58 5 -2 6 -11 2 -19 -3 -9 1 -15 11 -15 22 0 20 15 -6 43 -24
26 -34 25 -83 -8 -83 -55 -125 -167 -56 -150 14 4 35 14 45 23 11 9 16 12 13
5 -4 -6 0 -19 9 -28 14 -13 19 -14 25 -3 18 28 8 -3 -11 -34 -24 -40 -26 -67
-3 -75 22 -9 83 61 83 95 0 14 3 23 6 19 4 -3 13 1 21 9 16 16 37 9 29 -11 -6
-15 28 -9 60 12 19 12 22 12 27 -2 7 -17 48 -20 64 -4 8 8 16 7 31 -2 17 -10
23 -10 37 4 19 20 32 23 17 4 -18 -21 41 -20 64 1 10 10 34 28 52 41 50 35 32
36 -27 2 -28 -17 -51 -27 -51 -22 0 5 29 39 65 76 36 37 65 74 65 81 0 19 -3
18 -34 -11z m-507 -47 c-2 -2 -17 -14 -34 -28 l-30 -25 24 28 c14 15 29 27 34
27 6 0 8 -1 6 -2z m311 -41 c0 -2 -10 -12 -22 -23 l-23 -19 19 23 c18 21 26
27 26 19z m110 -11 c0 -3 -15 -14 -32 -26 l-33 -22 30 26 c31 27 35 29 35 22z
m-356 -101 c-4 -8 -10 -15 -16 -15 -5 0 -7 -3 -5 -7 3 -5 -7 -17 -21 -27 -26
-20 -24 -14 10 37 21 29 41 37 32 12z"/>
<path d="M2282 2098 c-4 -3 -23 -8 -42 -10 -53 -6 -47 -33 7 -33 l42 0 -27
-22 c-15 -12 -33 -22 -41 -23 -7 0 -11 -6 -8 -14 3 -8 -3 -22 -14 -32 -12 -11
-19 -28 -17 -43 3 -25 6 -26 63 -26 42 0 73 7 103 22 33 17 42 19 42 7 0 -17
31 -19 48 -2 10 10 14 10 21 0 8 -14 41 -6 41 10 0 5 5 6 10 3 6 -4 8 -11 5
-16 -10 -15 24 -10 50 7 16 11 25 12 25 5 0 -23 43 -29 64 -9 24 22 36 23 36
3 0 -19 15 -19 46 1 22 15 24 15 18 0 -8 -21 10 -21 41 0 22 14 25 14 25 1 0
-23 25 -27 56 -8 25 16 30 16 40 3 9 -12 17 -13 42 -4 22 8 32 7 34 0 5 -14
52 -3 72 17 8 8 21 15 28 15 8 0 20 6 28 13 8 6 5 0 -8 -14 -27 -31 -28 -39
-2 -32 11 3 20 9 20 13 0 4 6 10 14 13 10 4 12 0 9 -14 -4 -15 0 -19 21 -19
19 0 42 15 74 46 36 35 40 41 17 28 -16 -10 -32 -21 -35 -25 -10 -13 -50 -29
-50 -21 0 5 11 21 25 36 14 15 25 29 25 32 0 10 -30 3 -44 -12 -15 -14 -16
-13 -16 7 l0 22 -22 -20 c-13 -11 -34 -26 -48 -33 -23 -12 -24 -12 -11 3 15
19 8 47 -12 47 -8 0 -37 -18 -65 -40 -49 -39 -90 -56 -58 -24 9 8 16 20 16 25
0 6 4 8 8 5 5 -3 9 1 9 9 0 20 -21 19 -37 0 -7 -9 -19 -14 -27 -11 -8 3 -12 2
-9 -3 3 -5 0 -13 -7 -19 -15 -13 -67 -33 -67 -27 0 13 73 84 81 79 5 -3 9 0 9
5 0 6 17 11 39 11 22 0 44 6 51 15 12 14 8 15 -31 9 -40 -7 -43 -6 -30 9 12
15 11 17 -7 17 -11 0 -22 -6 -24 -12 -3 -7 -31 -18 -64 -24 -57 -11 -58 -11
-26 -19 38 -9 41 -21 7 -37 -14 -6 -25 -15 -25 -19 0 -4 -7 -10 -16 -13 -16
-6 -12 6 14 36 13 15 12 18 -11 23 -20 5 -39 -2 -79 -28 -53 -35 -108 -61
-108 -51 0 17 23 44 32 38 6 -4 8 -3 5 3 -4 6 0 14 9 17 23 9 31 7 14 -4 -8
-5 -11 -12 -8 -15 12 -12 47 20 38 34 -12 20 -52 7 -110 -35 -53 -38 -67 -35
-24 6 31 29 13 42 -19 13 -12 -10 -30 -25 -40 -32 -15 -12 -17 -12 -11 3 3 9
10 16 14 16 4 0 10 6 13 14 4 9 -2 13 -17 12 -16 -1 -22 -6 -18 -15 3 -9 1
-12 -6 -7 -7 4 -12 3 -12 -3 0 -6 -13 -17 -30 -26 -29 -15 -44 -4 -17 12 8 4
17 16 20 26 4 11 12 15 19 11 7 -4 10 -4 6 1 -4 4 8 22 28 38 44 38 61 67 39
67 -8 0 -34 -20 -57 -45 -23 -25 -50 -45 -59 -45 -21 0 -98 -61 -98 -78 -1 -8
-19 -12 -61 -11 l-60 2 22 30 c12 17 23 26 25 21 2 -7 19 -7 48 0 41 10 57 31
24 31 -8 0 -20 4 -27 9 -10 6 -8 12 9 27 18 15 25 17 37 6 13 -9 14 -9 8 1 -4
6 -3 12 3 12 5 0 12 -6 14 -12 4 -10 6 -10 6 0 1 7 15 12 36 12 39 0 47 17 12
25 -35 9 -137 11 -145 3z m148 -102 c0 -3 -15 -14 -32 -26 l-33 -22 30 26 c31
27 35 29 35 22z m339 -25 c-13 -11 -26 -18 -28 -15 -2 2 7 12 20 23 13 11 26
18 28 15 2 -2 -7 -12 -20 -23z m281 -10 c0 -5 -7 -14 -15 -21 -12 -10 -15 -10
-15 2 0 8 3 18 7 21 9 10 23 9 23 -2z"/>
<path d="M3445 2100 c-47 -7 -110 -42 -120 -68 -4 -11 1 -23 14 -33 11 -9 17
-20 13 -24 -4 -5 0 -4 8 1 19 11 69 14 75 4 4 -7 -16 -20 -35 -24 -3 -1 -11
-5 -18 -9 -7 -5 -38 -11 -69 -13 -66 -5 -70 -8 -51 -27 29 -29 173 10 202 55
19 31 -6 44 -89 47 l-30 2 23 19 c27 23 84 40 127 39 l30 -1 -32 -11 c-45 -17
-48 -23 -8 -22 40 1 58 15 53 41 -4 22 -41 32 -93 24z"/>
<path d="M3553 2048 c-1 -10 3 -18 9 -16 18 6 21 25 5 31 -8 3 -13 -3 -14 -15z"/>
<path d="M4220 2050 c-8 -5 -11 -12 -8 -16 10 -9 38 3 38 16 0 12 -10 13 -30
0z"/>
<path d="M3835 2030 c-10 -11 -22 -17 -28 -13 -5 3 -7 1 -4 -4 6 -10 -36 -43
-93 -73 -23 -12 -22 -10 8 24 41 47 32 64 -16 29 -20 -16 -31 -20 -23 -10 20
25 7 32 -23 12 -22 -15 -25 -15 -20 -2 3 8 1 18 -5 22 -6 3 -11 2 -11 -3 0
-14 -99 -76 -108 -67 -4 3 2 13 12 21 11 8 16 14 12 14 -5 0 -3 6 3 14 9 11 9
15 -1 18 -7 3 -23 -13 -36 -34 -37 -62 -12 -90 42 -47 27 21 36 14 14 -11 -7
-7 5 -3 26 9 22 12 34 16 28 8 -15 -18 -3 -31 15 -16 7 6 13 8 13 3 0 -4 7 1
15 12 14 19 14 19 15 -3 0 -28 19 -34 50 -14 24 15 25 15 10 -4 -27 -36 -37
-44 -45 -37 -5 4 -5 2 -1 -5 3 -6 2 -14 -4 -18 -5 -3 -10 -16 -10 -28 0 -17
10 -10 50 35 41 46 54 55 75 51 29 -6 95 38 95 63 0 23 -28 28 -58 9 -25 -17
-25 -16 6 17 17 19 32 37 32 41 0 13 -17 7 -35 -13z m0 -80 c-16 -11 -34 -20
-40 -20 -12 0 46 38 60 39 6 1 -3 -8 -20 -19z"/>
</g>
</svg>
